<svg xmlns="http://www.w3.org/2000/svg" xmlns:se="http://svg-edit.googlecode.com" xmlns:xlink="http://www.w3.org/1999/xlink" xmlns:dc="http://purl.org/dc/elements/1.1/" xmlns:cc="http://creativecommons.org/ns#" xmlns:rdf="http://www.w3.org/1999/02/22-rdf-syntax-ns#" xmlns:inkscape="http://www.inkscape.org/namespaces/inkscape" width="777" height="480" style="">                                    <title>my vector image</title>                                    <!-- Created with Vector Paint - http://www.vectorpaint.yaks.com/ https://chrome.google.com/webstore/detail/hnbpdiengicdefcjecjbnjnoifekhgdo -->                                    <rect id="backgroundrect" width="100%" height="100%" x="0" y="0" fill="#FFFFFF" stroke="none"/>                                <g class="currentLayer" style=""><title>Layer 1</title><rect fill="#4a90d6" stroke="#222222" stroke-width="2" stroke-linejoin="round" stroke-dashoffset="" fill-rule="nonzero" id="svg_2" x="34" y="275" width="0" height="0" style="color: rgb(0, 0, 0);"/><path fill="#4a90d6" stroke="#919191" stroke-width="2" stroke-linejoin="round" stroke-dashoffset="" fill-rule="nonzero" marker-start="" marker-mid="" marker-end="" id="svg_1" d="M278.5817249276676,122.7349597012242 C250.2727911880054,122.7349597012242 227.3129043911061,99.77507290426185 227.3129043911061,71.46613916464757 L227.3129043911061,71.46613916464757 C227.32999399790583,48.7455068635121 242.12959352618535,29.605147196536965 262.57730811681336,22.897476509662408 L262.57730811681336,22.897476509662408 C263.28652680091784,3.586220774222368 279.128592346707,-11.828604600449136 298.6021993471826,-11.845694207291302 L298.6021993471826,-11.845694207291302 C304.83990584578584,-11.845694207291302 310.6930961903592,-10.222181556969952 315.7772542268745,-7.42803083772246 L315.7772542268745,-7.42803083772246 C326.59497536017864,-25.414842042637602 346.2822024462126,-37.47155967216275 368.8233938754692,-37.48010447558278 L368.8233938754692,-37.48010447558278 C402.5497329851218,-37.46301486873421 429.9785519721403,-10.521249676772836 430.75612908360836,23.008558954159955 L430.75612908360836,23.008558954159955 C450.93895476818483,29.878580906053852 465.4651205868764,48.93349253881814 465.48221019375046,71.46613916464757 L465.48221019375046,71.46613916464757 C465.48221019375046,99.77507290426185 442.5223233967846,122.7349597012242 414.21338965718644,122.7349597012242 L414.21338965718644,122.7349597012242 L278.5817249276676,122.7349597012242 L278.5817249276676,122.7349597012242 zM420.43400654891605,37.92778573031147 C416.0676119999132,37.11602940513823 413.05129639168854,33.125606206712334 413.46999175939993,28.707942837143538 L413.46999175939993,28.707942837143538 C413.615253417598,27.246781451851177 413.70070145176334,25.836888887097533 413.70070145176334,24.461175536033057 L413.70070145176334,24.461175536033057 C413.64088782780135,-0.3102095865560798 393.60332380148975,-20.35631841637003 368.83193867887354,-20.390497630051698 L368.83193867887354,-20.390497630051698 C349.614675781038,-20.40758723690033 333.26846683336606,-8.273966376577327 326.8684090696915,8.74728204157475 L326.8684090696915,8.74728204157475 C325.8259430521138,11.507253547115756 323.3992188800037,13.56655117200694 320.476896109424,14.13050819790687 L320.476896109424,14.13050819790687 C317.5716629457098,14.694465223805398 314.5468025340774,13.68617841991625 312.5558633364928,11.490163940275364 L312.5558633364928,11.490163940275364 C309.00122511263805,7.619367989757315 304.13068716175246,5.2439126382324845 298.6021993471826,5.2439126382324845 L298.6021993471826,5.2439126382324845 C288.13481515429964,5.261002245064351 279.66691496233705,13.728902437042281 279.63273574865855,24.19628662991794 L279.63273574865855,24.19628662991794 C279.63273574865855,25.35837989541712 279.77799740677887,26.55465237459642 280.017251902689,27.819283281180248 L280.017251902689,27.819283281180248 C280.43594727040033,30.092200991636435 279.9488934753218,32.43347712946599 278.6244489447557,34.330423489312025 L278.6244489447557,34.330423489312025 C277.3000044142546,36.23591465259436 275.2748860030554,37.50054555916123 273.01051309601195,37.86797210634299 L273.01051309601195,37.86797210634299 C256.77538659272693,40.54249557766563 244.36833202294557,54.52179397731244 244.38542162975097,71.45759436122755 L244.38542162975097,71.45759436122755 C244.4196008434324,90.33306512210659 259.6977093633113,105.59408403516296 278.57318012419796,105.64535285570065 L278.57318012419796,105.64535285570065 L414.21338965718644,105.64535285570065 C433.0888604180733,105.59408403516296 448.34133452767566,90.33306512210659 448.38405854475747,71.45759436122755 L448.38405854475747,71.45759436122755 C448.4182377584391,54.735414062879244 436.33588571866096,40.867198107729024 420.43400654891605,37.92778573031147 L420.43400654891605,37.92778573031147 " style="color: rgb(0, 0, 0);" class="selected" stroke-opacity="1"/></g></svg>